<svg width="103" height="49" viewBox="0 0 103 49" fill="none" xmlns="http://www.w3.org/2000/svg">
<path d="M0 38.9309V0H2.49274V19.2098L9.05933 0H11.8654L6.38141 16.0081L12.0221 38.9309H9.34421L4.82879 20.5438L2.49274 27.4139V38.9531H0V38.9309Z" fill="#13110C"/>
<path d="M13.4609 38.9309V35.04H15.3982C15.8112 35.04 16.0676 34.751 16.1531 34.1729L16.908 29.8374L13.5037 9.73828H15.8397L18.2043 23.901L20.5688 9.73828H22.9049L18.5461 35.129C18.3752 36.1739 17.9906 37.0633 17.3639 37.797C16.7371 38.5529 16.0819 38.9086 15.3982 38.9086H13.4609V38.9309Z" fill="#13110C"/>
<path d="M32.4481 9.73828L29.3002 24.3457L32.4481 38.9531H29.7987L27.9612 30.4599L26.1522 38.9309H23.5312L26.6507 24.3902L23.5312 9.73828H26.1522L27.9897 18.2537L29.8272 9.73828H32.4481Z" fill="#13110C"/>
<path d="M40.5251 38.9309V30.0819H36.7789V38.9309H34.2861V9.73828H36.7789V26.4357H40.5251V9.73828H43.0178V38.9309H40.5251Z" fill="#13110C"/>
<path d="M55.7948 9.73828V38.9309H53.3021V20.0546L48.7867 38.9309H46.2939V9.73828H48.7867V28.7702L53.3021 9.73828H55.7948Z" fill="#13110C"/>
<path d="M59.541 38.9309V0H70.5091V3.6463H62.0338V20.4326H65.4666C67.1047 20.4326 68.5006 21.3219 69.6544 23.1229C70.8082 24.9238 71.378 27.1027 71.378 29.6595C71.378 32.2164 70.8082 34.3952 69.6544 36.1962C68.5006 37.9971 67.1047 38.8864 65.4666 38.8864H59.541V38.9309ZM62.0338 24.0789V35.2624H65.4666C66.4067 35.2624 67.2044 34.751 67.8881 33.706C68.5576 32.661 68.8995 31.3937 68.8995 29.9041V29.4149C68.8995 27.9475 68.5576 26.7025 67.8881 25.6352C67.2186 24.5903 66.4067 24.0567 65.4666 24.0567H62.0338V24.0789Z" fill="#13110C"/>
<path d="M73.415 38.9309V9.73828H80.8933V13.3846H75.9078V26.4134H80.1098V30.0597H75.9078V35.2624H80.8933V38.9086H73.415V38.9309Z" fill="#13110C"/>
<path d="M85.0953 30.0597V38.9087H82.6025V9.73828H86.9613C88.172 9.73828 89.1976 10.4053 90.0523 11.7393C90.9069 13.0733 91.3343 14.6741 91.3343 16.564V23.2785C91.3343 25.1683 90.9069 26.7692 90.0523 28.1032C89.1976 29.4372 88.172 30.1042 86.9613 30.1042H85.0953V30.0597ZM85.0953 13.3846V26.4134H86.9613C87.4741 26.4134 87.9156 26.1244 88.286 25.5685C88.6421 24.9905 88.8273 24.3012 88.8273 23.5008V16.2972C88.8273 15.4968 88.6421 14.8075 88.286 14.2295C87.9156 13.6514 87.4741 13.3846 86.9613 13.3846H85.0953Z" fill="#13110C"/>
<path d="M102.872 9.73828V38.9309H100.379V20.0546L95.8634 38.9309H93.3564V9.73828H95.8492V28.7702L100.365 9.73828H102.872Z" fill="#13110C"/>
<path d="M55.7948 0H13.4609V3.6463H55.7948V0Z" fill="#E41715"/>
<path d="M102.872 0H73.415V3.6463H102.872V0Z" fill="#E41715"/>
<path d="M103 44.9784H0.12793V48.6247H103V44.9784Z" fill="#E41715"/>
</svg>
